<svg width="526" height="371" viewBox="0 0 526 371" fill="none" xmlns="http://www.w3.org/2000/svg">
<rect x="10" y="10" width="516" height="361" fill="#1A1A1A"/>
<rect x="0.3" y="0.3" width="515.4" height="360.4" fill="white" stroke="#1A1A1A" stroke-width="0.6"/>
<path d="M30 234.5H41.2719L48.9573 196L60.2292 216H70.9888L79.6989 226H89.4337L99.1685 203.5L109.416 216L117.613 173L127.348 179.5L138.108 160L155.528 186L165.775 165L176.535 176L186.27 168.5L196.517 196L202.665 245.5L214.449 216H228.796L244.679 212L252.364 226L263.636 219.5L273.883 226L282.081 203.5L302.063 207L310.773 186L319.483 196L339.465 179.5L348.688 186L368.157 176L378.917 179.5L385.065 165L395.825 160L406.072 168.5L414.782 160H425.029L433.227 142.5H445.524L464.481 118L475.753 130.5H486" stroke="#4060EA"/>
<path d="M41.2719 234.5H30V279H486V130.5H475.753L464.481 118L445.524 142.5H433.227L425.029 160H414.782L406.072 168.5L395.825 160L385.065 165L378.917 179.5L368.157 176L348.688 186L339.465 179.5L319.483 196L310.773 186L302.063 207L282.081 203.5L273.883 226L263.636 219.5L252.364 226L244.679 212L228.796 216H214.449L202.665 245.5L196.517 196L186.27 168.5L176.535 176L165.775 165L155.528 186L138.108 160L127.348 179.5L117.613 173L109.416 216L99.1685 203.5L89.4337 226H79.6989L70.9888 216H60.2292L48.9573 196L41.2719 234.5Z" fill="url(#paint0_linear_540_661)"/>
<path d="M406.193 58.28H408.041V56.24C411.257 55.88 413.321 53.864 413.321 50.936C413.321 48.392 411.929 46.904 408.857 46.232L408.041 46.04V40.88C409.289 41.144 410.009 41.984 410.057 43.28H413.033C412.937 40.4 411.065 38.504 408.041 38.192V36.152H406.193V38.192C403.001 38.528 400.889 40.544 400.889 43.352C400.889 45.992 402.401 47.672 405.425 48.32L406.193 48.488V53.6C404.633 53.408 403.745 52.544 403.721 51.176H400.649C400.721 54.104 402.857 56.048 406.193 56.288V58.28ZM406.097 45.608C404.561 45.272 403.889 44.528 403.889 43.256C403.889 41.96 404.753 41.096 406.193 40.856V45.632L406.097 45.608ZM408.209 48.92C409.649 49.232 410.345 49.976 410.345 51.2C410.345 52.424 409.481 53.264 408.041 53.552V48.872L408.209 48.92ZM415.164 51.032C415.164 54.224 417.78 56.288 421.836 56.288C425.916 56.288 428.532 54.2 428.532 51.032C428.532 48.92 427.332 47.216 425.484 46.568C427.044 45.92 427.908 44.6 427.908 42.896C427.908 40.04 425.484 38.144 421.884 38.144C418.26 38.144 415.788 40.064 415.788 42.848C415.788 44.552 416.628 45.872 418.164 46.568C416.34 47.264 415.164 48.944 415.164 51.032ZM418.572 43.112C418.572 41.672 419.844 40.76 421.836 40.76C423.804 40.76 425.052 41.672 425.052 43.136C425.052 44.6 423.804 45.512 421.836 45.512C419.844 45.512 418.572 44.576 418.572 43.112ZM418.164 50.816C418.164 49.112 419.58 48.056 421.836 48.056C424.092 48.056 425.508 49.112 425.508 50.816C425.508 52.52 424.092 53.576 421.86 53.576C419.58 53.576 418.164 52.52 418.164 50.816ZM433.059 43.616C431.091 46.28 430.395 47.816 430.395 49.928C430.395 53.528 433.227 56.312 437.019 56.312C440.763 56.312 443.547 53.696 443.547 49.952C443.547 46.4 441.099 43.856 437.475 43.856C437.043 43.856 436.587 43.928 436.155 44.048L440.355 38.456H436.851L433.059 43.616ZM433.539 49.952C433.539 47.84 434.931 46.376 437.019 46.376C439.035 46.376 440.451 47.84 440.451 49.952C440.451 52.088 439.011 53.576 437.019 53.576C434.955 53.576 433.539 52.088 433.539 49.952ZM447.519 56.288C448.575 56.288 449.463 55.424 449.463 54.392C449.463 53.336 448.575 52.472 447.519 52.472C446.463 52.472 445.575 53.336 445.575 54.392C445.575 55.424 446.463 56.288 447.519 56.288ZM451.188 47.264C451.188 52.688 453.948 56.312 458.604 56.312C463.26 56.312 466.044 52.688 466.044 47.264C466.044 41.816 463.092 38.12 458.604 38.12C454.116 38.12 451.188 41.816 451.188 47.264ZM454.212 47.264C454.212 43.112 455.844 40.832 458.604 40.832C461.388 40.832 463.02 43.112 463.02 47.264C463.02 51.32 461.388 53.6 458.604 53.6C455.844 53.6 454.212 51.32 454.212 47.264ZM468.11 47.264C468.11 52.688 470.87 56.312 475.526 56.312C480.182 56.312 482.966 52.688 482.966 47.264C482.966 41.816 480.014 38.12 475.526 38.12C471.038 38.12 468.11 41.816 468.11 47.264ZM471.134 47.264C471.134 43.112 472.766 40.832 475.526 40.832C478.31 40.832 479.942 43.112 479.942 47.264C479.942 51.32 478.31 53.6 475.526 53.6C472.766 53.6 471.134 51.32 471.134 47.264Z" fill="#1A1A1A"/>
<path d="M446.626 71.138H449.678V80H451.05V71.138H454.088V69.878H446.626V71.138ZM453.688 76.57C453.688 78.684 455.2 80.168 457.258 80.168C459.302 80.168 460.814 78.684 460.814 76.57C460.814 74.456 459.302 72.972 457.258 72.972C455.2 72.972 453.688 74.456 453.688 76.57ZM455.018 76.57C455.018 75.142 455.928 74.148 457.258 74.148C458.574 74.148 459.498 75.142 459.498 76.57C459.498 77.998 458.574 78.992 457.258 78.992C455.928 78.992 455.018 77.998 455.018 76.57ZM465.014 80.168C466.106 80.168 467.03 79.692 467.478 78.754L467.59 80H468.766V69.696H467.464V74.26C467.002 73.42 466.12 72.958 465.07 72.958C463.04 72.958 461.822 74.498 461.822 76.598C461.822 78.684 463.026 80.168 465.014 80.168ZM465.28 78.978C463.936 78.978 463.152 77.97 463.152 76.556C463.152 75.156 463.936 74.148 465.28 74.148C466.624 74.148 467.45 75.156 467.45 76.556C467.45 77.984 466.624 78.978 465.28 78.978ZM472.667 80.168C473.773 80.168 474.711 79.678 475.061 78.894L475.201 80H476.321V75.702C476.321 73.854 475.173 72.958 473.479 72.958C471.715 72.958 470.539 73.896 470.539 75.324H471.687C471.687 74.498 472.317 74.008 473.423 74.008C474.347 74.008 475.033 74.414 475.033 75.562V75.758L472.877 75.926C471.267 76.052 470.329 76.836 470.329 78.096C470.329 79.342 471.197 80.168 472.667 80.168ZM473.045 79.146C472.191 79.146 471.659 78.782 471.659 78.054C471.659 77.382 472.135 76.934 473.297 76.822L475.047 76.682V77.046C475.047 78.334 474.291 79.146 473.045 79.146ZM477.321 83.066C477.671 83.15 478.035 83.206 478.469 83.206C479.519 83.206 480.205 82.716 480.667 81.54L483.901 73.154H482.543L480.513 78.67L478.525 73.154H477.139L479.897 80.364L479.659 81.022C479.337 81.89 478.833 81.988 478.203 81.988H477.321V83.066Z" fill="#1A1A1A" fill-opacity="0.7"/>
<path d="M96.24 66.28C95.2533 66.28 94.3667 66.0667 93.58 65.64C92.8067 65.2 92.1867 64.5667 91.72 63.74C91.2667 62.9 91.04 61.8733 91.04 60.66V57.34C91.04 55.5267 91.5467 54.14 92.56 53.18C93.5733 52.2067 94.9333 51.72 96.64 51.72C98.3467 51.72 99.66 52.18 100.58 53.1C101.5 54.0067 101.96 55.2333 101.96 56.78V56.86H99.6V56.7C99.6 56.1667 99.4933 55.6867 99.28 55.26C99.0667 54.8333 98.74 54.5 98.3 54.26C97.86 54.0067 97.3067 53.88 96.64 53.88C95.6533 53.88 94.8733 54.1867 94.3 54.8C93.74 55.4 93.46 56.2333 93.46 57.3V60.7C93.46 61.7533 93.74 62.5933 94.3 63.22C94.8733 63.8467 95.6667 64.16 96.68 64.16C97.6933 64.16 98.4333 63.8867 98.9 63.34C99.3667 62.7933 99.6 62.0933 99.6 61.24V61H96.06V58.96H101.96V66H99.76V64.62H99.42C99.3133 64.86 99.1467 65.1133 98.92 65.38C98.6933 65.6333 98.3667 65.8467 97.94 66.02C97.5267 66.1933 96.96 66.28 96.24 66.28ZM108.803 66.28C107.816 66.28 106.943 66.0733 106.183 65.66C105.436 65.2333 104.849 64.64 104.423 63.88C104.009 63.1067 103.803 62.2067 103.803 61.18V60.94C103.803 59.9 104.009 59 104.423 58.24C104.836 57.48 105.416 56.8933 106.163 56.48C106.909 56.0533 107.769 55.84 108.743 55.84C109.703 55.84 110.543 56.0533 111.263 56.48C111.983 56.8933 112.543 57.48 112.943 58.24C113.343 59 113.543 59.8867 113.543 60.9V61.72H106.123C106.149 62.4933 106.423 63.1133 106.943 63.58C107.463 64.0467 108.103 64.28 108.863 64.28C109.609 64.28 110.163 64.12 110.523 63.8C110.883 63.4667 111.156 63.0933 111.343 62.68L113.243 63.66C113.056 64.02 112.783 64.4067 112.423 64.82C112.076 65.22 111.609 65.5667 111.023 65.86C110.436 66.14 109.696 66.28 108.803 66.28ZM106.143 59.98H111.203C111.149 59.3267 110.896 58.8067 110.443 58.42C110.003 58.0333 109.429 57.84 108.723 57.84C107.989 57.84 107.403 58.0333 106.963 58.42C106.523 58.8067 106.249 59.3267 106.143 59.98ZM118.932 66C118.292 66 117.778 65.8133 117.392 65.44C117.018 65.0533 116.832 64.5333 116.832 63.88V58.02H114.252V56.12H116.832V52.94H119.132V56.12H121.972V58.02H119.132V63.5C119.132 63.9 119.318 64.1 119.692 64.1H121.672V66H118.932ZM129.55 66L128.01 56.12H130.29L131.35 64.46H131.69L133.19 56.12H136.87L138.37 64.46H138.71L139.77 56.12H142.05L140.51 66H136.69L135.21 57.66H134.87L133.37 66H129.55ZM143.972 66V56.12H146.272V66H143.972ZM145.112 54.86C144.698 54.86 144.338 54.7267 144.032 54.46C143.738 54.18 143.592 53.8133 143.592 53.36C143.592 52.9067 143.738 52.5467 144.032 52.28C144.338 52 144.698 51.86 145.112 51.86C145.552 51.86 145.912 52 146.192 52.28C146.485 52.5467 146.632 52.9067 146.632 53.36C146.632 53.8133 146.485 54.18 146.192 54.46C145.912 54.7267 145.552 54.86 145.112 54.86ZM152.547 66C151.907 66 151.393 65.8133 151.007 65.44C150.633 65.0533 150.447 64.5333 150.447 63.88V58.02H147.867V56.12H150.447V52.94H152.747V56.12H155.587V58.02H152.747V63.5C152.747 63.9 152.933 64.1 153.307 64.1H155.287V66H152.547ZM157.527 66V52H159.827V57.42H160.167C160.274 57.1933 160.447 56.9667 160.687 56.74C160.927 56.5133 161.241 56.3267 161.627 56.18C162.027 56.0333 162.527 55.96 163.127 55.96C163.887 55.96 164.561 56.1333 165.147 56.48C165.734 56.8133 166.187 57.2867 166.507 57.9C166.841 58.5133 167.007 59.24 167.007 60.08V66H164.707V60.26C164.707 59.46 164.507 58.8667 164.107 58.48C163.721 58.08 163.167 57.88 162.447 57.88C161.634 57.88 160.994 58.1533 160.527 58.7C160.061 59.2333 159.827 60 159.827 61V66H157.527ZM177.89 66C177.25 66 176.736 65.8133 176.35 65.44C175.976 65.0533 175.79 64.5333 175.79 63.88V58.02H173.21V56.12H175.79V52.94H178.09V56.12H180.93V58.02H178.09V63.5C178.09 63.9 178.276 64.1 178.65 64.1H180.63V66H177.89ZM187.199 66.28C186.212 66.28 185.325 66.08 184.539 65.68C183.765 65.2667 183.152 64.6867 182.699 63.94C182.259 63.18 182.039 62.2733 182.039 61.22V60.9C182.039 59.8467 182.259 58.94 182.699 58.18C183.152 57.42 183.765 56.84 184.539 56.44C185.325 56.04 186.212 55.84 187.199 55.84C188.185 55.84 189.065 56.04 189.839 56.44C190.612 56.84 191.219 57.42 191.659 58.18C192.112 58.94 192.339 59.8467 192.339 60.9V61.22C192.339 62.2733 192.112 63.18 191.659 63.94C191.219 64.6867 190.612 65.2667 189.839 65.68C189.065 66.08 188.185 66.28 187.199 66.28ZM187.199 64.24C188.039 64.24 188.725 63.9733 189.259 63.44C189.792 62.8933 190.059 62.1333 190.059 61.16V60.96C190.059 59.9867 189.792 59.2333 189.259 58.7C188.725 58.1533 188.039 57.88 187.199 57.88C186.359 57.88 185.672 58.1533 185.139 58.7C184.605 59.2333 184.339 59.9867 184.339 60.96V61.16C184.339 62.1333 184.605 62.8933 185.139 63.44C185.672 63.9733 186.359 64.24 187.199 64.24ZM198.164 66.16C197.404 66.16 196.731 65.9933 196.144 65.66C195.558 65.3133 195.104 64.8333 194.784 64.22C194.464 63.5933 194.304 62.8667 194.304 62.04V56.12H196.584V61.86C196.584 62.66 196.778 63.2533 197.164 63.64C197.564 64.0267 198.124 64.22 198.844 64.22C199.658 64.22 200.298 63.9533 200.764 63.42C201.244 62.8867 201.484 62.12 201.484 61.12V56.12H203.764V66H201.524V64.62H201.184C201.011 64.98 200.691 65.3267 200.224 65.66C199.771 65.9933 199.084 66.16 198.164 66.16ZM210.909 66.28C209.949 66.28 209.082 66.08 208.309 65.68C207.536 65.28 206.922 64.7 206.469 63.94C206.029 63.18 205.809 62.2667 205.809 61.2V60.92C205.809 59.8533 206.029 58.94 206.469 58.18C206.922 57.42 207.536 56.84 208.309 56.44C209.082 56.04 209.949 55.84 210.909 55.84C211.856 55.84 212.662 56.0067 213.329 56.34C214.009 56.6733 214.556 57.1333 214.969 57.72C215.382 58.2933 215.649 58.94 215.769 59.66L213.549 60.12C213.496 59.7067 213.369 59.3333 213.169 59C212.969 58.6533 212.682 58.38 212.309 58.18C211.949 57.98 211.502 57.88 210.969 57.88C210.422 57.88 209.929 58 209.489 58.24C209.062 58.4667 208.722 58.8133 208.469 59.28C208.229 59.7467 208.109 60.3067 208.109 60.96V61.16C208.109 61.8133 208.229 62.3733 208.469 62.84C208.722 63.2933 209.062 63.64 209.489 63.88C209.929 64.12 210.422 64.24 210.969 64.24C211.782 64.24 212.396 64.0333 212.809 63.62C213.236 63.1933 213.502 62.6467 213.609 61.98L215.829 62.5C215.669 63.1933 215.382 63.8267 214.969 64.4C214.556 64.9733 214.009 65.4333 213.329 65.78C212.662 66.1133 211.856 66.28 210.909 66.28ZM217.666 66V52H219.966V57.42H220.306C220.413 57.1933 220.586 56.9667 220.826 56.74C221.066 56.5133 221.38 56.3267 221.766 56.18C222.166 56.0333 222.666 55.96 223.266 55.96C224.026 55.96 224.7 56.1333 225.286 56.48C225.873 56.8133 226.326 57.2867 226.646 57.9C226.98 58.5133 227.146 59.24 227.146 60.08V66H224.846V60.26C224.846 59.46 224.646 58.8667 224.246 58.48C223.86 58.08 223.306 57.88 222.586 57.88C221.773 57.88 221.133 58.1533 220.666 58.7C220.2 59.2333 219.966 60 219.966 61V66H217.666Z" fill="#1A1A1A"/>
<rect x="32.3" y="38.3" width="41.4" height="41.4" rx="20.7" fill="#BEF0C6" stroke="#1A1A1A" stroke-width="0.6"/>
<path opacity="0.2" d="M45.5859 54.8291C45.5293 54.9263 45.4997 55.0369 45.5 55.1494V62.8525C45.5006 62.9638 45.5305 63.073 45.5868 63.169C45.643 63.265 45.7236 63.3445 45.8203 63.3994L52.6953 67.2666C52.788 67.3196 52.8933 67.3466 53 67.3447V67.3447L53.0703 59.001L45.5859 54.8291Z" fill="#1A1A1A"/>
<path d="M60.5 62.8512V55.148C60.4994 55.0368 60.4695 54.9276 60.4132 54.8316C60.357 54.7356 60.2764 54.6561 60.1797 54.6012L53.3047 50.734C53.2121 50.6805 53.107 50.6523 53 50.6523C52.893 50.6523 52.7879 50.6805 52.6953 50.734L45.8203 54.6012C45.7236 54.6561 45.643 54.7356 45.5868 54.8316C45.5305 54.9276 45.5006 55.0368 45.5 55.148V62.8512C45.5006 62.9624 45.5305 63.0716 45.5868 63.1676C45.643 63.2636 45.7236 63.3431 45.8203 63.398L52.6953 67.2652C52.7879 67.3187 52.893 67.3469 53 67.3469C53.107 67.3469 53.2121 67.3187 53.3047 67.2652L60.1797 63.398C60.2764 63.3431 60.357 63.2636 60.4132 63.1676C60.4695 63.0716 60.4994 62.9624 60.5 62.8512V62.8512Z" stroke="#1A1A1A" stroke-linecap="round" stroke-linejoin="round"/>
<path d="M60.4141 54.8291L53.0703 59.001L45.5859 54.8291" stroke="#1A1A1A" stroke-linecap="round" stroke-linejoin="round"/>
<path d="M53.0703 59L53 67.3438" stroke="#1A1A1A" stroke-linecap="round" stroke-linejoin="round"/>
<path d="M67.328 302.608V310H68.804V301.228H65.408V302.608H67.328ZM73.9093 310C76.4533 310 78.2053 308.212 78.2053 305.632C78.2053 303.016 76.4173 301.228 73.8253 301.228H70.7533V310H73.9093ZM73.6813 302.644C75.4933 302.644 76.5853 303.772 76.5853 305.632C76.5853 307.456 75.5173 308.584 73.7653 308.584H72.2893V302.644H73.6813Z" fill="#1A1A1A"/>
<path opacity="0.4" d="M136.564 307.588C136.564 309.124 137.824 310.144 139.756 310.144C141.676 310.144 142.948 309.124 142.948 307.6C142.948 306.532 142.324 305.668 141.352 305.356C142.168 305.032 142.624 304.348 142.624 303.46C142.624 302.092 141.472 301.168 139.768 301.168C138.04 301.168 136.876 302.092 136.876 303.448C136.876 304.324 137.32 305.008 138.136 305.356C137.176 305.704 136.564 306.544 136.564 307.588ZM137.956 303.52C137.956 302.716 138.664 302.188 139.744 302.188C140.836 302.188 141.52 302.716 141.52 303.544C141.52 304.384 140.836 304.924 139.744 304.924C138.664 304.924 137.956 304.372 137.956 303.52ZM137.716 307.504C137.716 306.544 138.508 305.932 139.744 305.932C140.992 305.932 141.784 306.544 141.784 307.504C141.784 308.476 140.98 309.1 139.756 309.1C138.52 309.1 137.716 308.476 137.716 307.504ZM146.26 310H147.412L149.536 303.136L151.636 310H152.764L155.38 301.324H154.18L152.584 306.64C152.464 307.024 152.344 307.468 152.2 308.2C152.068 307.552 151.948 307.096 151.804 306.628L150.172 301.324H148.9L147.256 306.628C147.124 307.084 146.992 307.504 146.848 308.2C146.728 307.54 146.608 307.084 146.488 306.628L144.904 301.324H143.68L146.26 310Z" fill="#1A1A1A"/>
<path opacity="0.4" d="M214.244 302.38V310H215.372V301.324H212.42V302.38H214.244ZM218.531 310V306.292C218.531 305.08 218.507 304.192 218.447 303.772L220.967 310H222.071L224.603 303.748C224.543 304.36 224.531 304.948 224.531 306.568V310H225.683V301.324H224.507L221.519 308.62L218.531 301.324H217.379V310H218.531Z" fill="#1A1A1A"/>
<path opacity="0.4" d="M290.072 305.512C291.452 305.512 292.172 306.208 292.172 307.252C292.172 308.368 291.44 309.088 290.312 309.088C289.22 309.088 288.524 308.428 288.524 307.3H287.36C287.36 309.1 288.584 310.144 290.288 310.144C292.052 310.144 293.372 309.028 293.372 307.276C293.372 305.716 292.256 304.72 290.78 304.54L293.156 302.272V301.324H287.768V302.368H291.668L289.208 304.732V305.512H290.072ZM296.88 306.472V310H298.056V306.472L300.972 301.324H299.688L297.768 304.792C297.612 305.08 297.588 305.152 297.48 305.368C297.384 305.164 297.312 304.996 297.192 304.792L295.26 301.324H293.94L296.88 306.472Z" fill="#1A1A1A"/>
<path opacity="0.4" d="M359.096 301.324V302.404H363.968L360.644 310H361.868L365.156 302.404V301.324H359.096ZM367.394 310V306.292C367.394 305.08 367.37 304.192 367.31 303.772L369.83 310H370.934L373.466 303.748C373.406 304.36 373.394 304.948 373.394 306.568V310H374.546V301.324H373.37L370.382 308.62L367.394 301.324H366.242V310H367.394Z" fill="#1A1A1A"/>
<path opacity="0.4" d="M438.408 309.988V308.896H434.4L436.2 307.336C437.736 306.004 438.348 305.128 438.348 303.892C438.348 302.224 437.232 301.168 435.492 301.168C433.728 301.168 432.552 302.38 432.516 304.24H433.692C433.716 303.004 434.412 302.224 435.48 302.224C436.524 302.224 437.148 302.872 437.148 303.964C437.148 304.888 436.752 305.476 435.348 306.688L432.552 309.1V310L438.408 309.988ZM441.662 310H442.814L444.938 303.136L447.038 310H448.166L450.782 301.324H449.582L447.986 306.64C447.866 307.024 447.746 307.468 447.602 308.2C447.47 307.552 447.35 307.096 447.206 306.628L445.574 301.324H444.302L442.658 306.628C442.526 307.084 442.394 307.504 442.25 308.2C442.13 307.54 442.01 307.084 441.89 306.628L440.306 301.324H439.082L441.662 310Z" fill="#1A1A1A"/>
<line x1="56" y1="328.7" x2="460" y2="328.7" stroke="#DDDDDD" stroke-width="0.6"/>
<line x1="279" y1="328" x2="311" y2="328" stroke="#1A1A1A" stroke-width="2" stroke-linecap="round"/>
<defs>
<linearGradient id="paint0_linear_540_661" x1="258" y1="118" x2="258" y2="279" gradientUnits="userSpaceOnUse">
<stop offset="0.168722" stop-color="#4060EA" stop-opacity="0.5"/>
<stop offset="1" stop-color="white" stop-opacity="0"/>
</linearGradient>
</defs>
</svg>
